<?xml version="1.0" standalone="no"?>
<!DOCTYPE svg PUBLIC "-//W3C//DTD SVG 20010904//EN"
 "http://www.w3.org/TR/2001/REC-SVG-20010904/DTD/svg10.dtd">
<svg version="1.0" xmlns="http://www.w3.org/2000/svg"
 width="700.000000pt" height="700.000000pt" viewBox="0 0 700.000000 700.000000"
 preserveAspectRatio="xMidYMid meet">
<metadata>
Created by potrace 1.11, written by Peter Selinger 2001-2013
</metadata>
<g transform="translate(0.000000,700.000000) scale(0.100000,-0.100000)"
fill="#000000" stroke="none">
<path d="M1155 6994 c-184 -39 -303 -102 -445 -238 -353 -337 -604 -975 -684
-1741 -16 -143 -20 -254 -20 -490 0 -233 3 -319 18 -490 7 -71 37 -298 41
-305 2 -3 6 -26 10 -50 9 -63 42 -217 48 -227 3 -4 8 -24 11 -44 3 -19 24 -96
47 -170 129 -423 313 -752 537 -963 78 -74 110 -98 190 -143 289 -163 613
-106 875 153 38 37 85 88 105 113 21 25 40 48 43 51 19 15 134 203 182 297
110 215 212 500 261 733 3 14 10 43 15 65 5 22 12 57 15 77 3 21 10 57 15 80
14 62 49 345 58 468 15 205 8 659 -12 840 -14 124 -31 248 -41 300 -3 14 -9
50 -14 80 -39 220 -137 551 -220 740 -201 458 -462 748 -755 840 -66 20 -230
34 -280 24z"/>
<path d="M5718 6625 c-2 -1 -28 -5 -59 -8 -211 -23 -526 -128 -789 -265 -532
-275 -1043 -706 -1456 -1227 -358 -451 -593 -917 -678 -1345 -52 -261 -30
-524 60 -701 90 -180 282 -318 489 -354 17 -2 41 -7 55 -10 74 -16 346 -3 430
20 3 1 25 5 50 9 210 36 573 187 855 356 392 235 815 596 1115 950 30 36 57
67 60 70 13 12 159 200 201 260 65 92 160 236 194 295 50 85 58 101 123 232
35 71 68 136 73 146 30 56 113 302 139 412 37 156 41 190 45 363 4 206 -30
349 -117 483 -136 212 -360 318 -670 317 -65 0 -119 -2 -120 -3z"/>
<path d="M4248 2484 c-2 -1 -39 -5 -83 -8 -155 -12 -193 -17 -356 -40 -1056
-154 -1804 -670 -1766 -1220 3 -44 8 -92 12 -106 3 -14 8 -36 11 -50 9 -43 80
-183 120 -236 179 -238 465 -431 854 -577 116 -43 324 -107 400 -122 8 -2 44
-10 80 -18 76 -18 273 -53 345 -62 28 -3 64 -8 80 -10 234 -35 825 -40 1070
-10 22 3 54 7 70 10 17 2 55 7 85 10 30 3 93 13 140 21 47 8 99 18 115 20 77
14 291 68 395 100 305 95 602 241 780 383 24 20 53 43 63 51 25 20 138 137
169 175 133 163 193 395 152 589 -77 360 -485 693 -1099 898 -82 28 -158 52
-168 54 -10 2 -27 6 -37 9 -10 3 -27 7 -37 9 -10 3 -49 12 -88 21 -107 25
-159 35 -320 60 -146 23 -153 23 -240 30 -44 4 -96 9 -115 12 -36 5 -628 12
-632 7z"/>
</g>
</svg>
